<?xml version="1.0" encoding="utf-8"?>
<!-- Generator: Adobe Illustrator 23.0.3, SVG Export Plug-In . SVG Version: 6.00 Build 0)  -->
<svg version="1.1" id="Capa_1" xmlns="http://www.w3.org/2000/svg" xmlns:xlink="http://www.w3.org/1999/xlink" x="0px" y="0px"
	 viewBox="0 0 85 70.9" style="enable-background:new 0 0 85 70.9;" xml:space="preserve">
<style type="text/css">
	.st0{fill:#FFFFFF;}
	.st1{fill:#FF2C10;}
</style>
<g>
	<path class="st0" d="M55,18.1c2.2-0.2,4.4,1.3,5,3.3c0.4,1.4,0.2,3.1-0.7,4.3c-1.2,1.7-3.5,2.4-5.4,1.7c-1.5-0.5-2.8-1.9-3.1-3.5
		c-0.2-1-0.1-2.1,0.3-3C51.8,19.4,53.3,18.2,55,18.1z"/>
	<path class="st0" d="M35.3,23.5c3.1-0.4,6.4,0.3,9,2.1c2.7,1.7,4.7,4.4,5.6,7.5c0.8,2.7,0.7,5.5-0.2,8.1c-1.3,3.6-4.1,6.5-7.6,7.9
		c-2.8,1.1-6,1.3-8.9,0.4c-2.9-0.9-5.4-2.7-7.1-5.1C24.3,42,23.4,39,23.6,36c0.2-3.3,1.6-6.4,4-8.7C29.7,25.2,32.4,23.9,35.3,23.5z"
		/>
</g>
<g>
	<path class="st1" d="M41.3,3.4C46,3.2,50.6,4.1,54.9,6c6.4,2.8,11.7,7.8,15,14c2.4,4.4,3.6,9.4,3.6,14.4c0,5.1-1.2,10.3-3.6,14.8
		c-1.7,3.1-3.9,6-6.5,8.4c-3.3,3-7.2,5.3-11.4,6.7c-4.9,1.6-10.1,2-15.2,1.1c-4.9-0.8-9.6-2.9-13.6-5.9c-5.8-4.4-10-10.8-11.6-17.9
		c-1.2-5.1-1.1-10.5,0.4-15.5c1.8-6.3,5.6-12,10.7-16.1C28,6,34.6,3.5,41.3,3.4 M55,18.1c-1.7,0.1-3.2,1.2-3.9,2.7
		c-0.5,0.9-0.5,2-0.3,3c0.3,1.6,1.5,3,3.1,3.5c1.9,0.7,4.2,0,5.4-1.7c0.9-1.2,1.1-2.8,0.7-4.3C59.4,19.4,57.2,17.9,55,18.1
		 M35.3,23.5c-2.9,0.4-5.6,1.7-7.7,3.8c-2.3,2.3-3.8,5.5-4,8.7c-0.2,3,0.7,6,2.4,8.5c1.7,2.5,4.3,4.3,7.1,5.1
		c2.9,0.9,6.1,0.7,8.9-0.4c3.5-1.4,6.3-4.4,7.6-7.9c0.9-2.6,1-5.5,0.2-8.1C49,30,47,27.3,44.3,25.6C41.7,23.9,38.4,23.1,35.3,23.5z"
		/>
</g>
</svg>
