<?xml version="1.0" encoding="utf-8"?>
<!-- Generator: Adobe Illustrator 23.0.3, SVG Export Plug-In . SVG Version: 6.00 Build 0)  -->
<svg version="1.1" id="Capa_1" xmlns="http://www.w3.org/2000/svg" xmlns:xlink="http://www.w3.org/1999/xlink" x="0px" y="0px"
	 viewBox="0 0 85 70.9" style="enable-background:new 0 0 85 70.9;" xml:space="preserve">
<style type="text/css">
	.st0{fill:#FFFFFF;}
	.st1{fill:#00A6DD;}
</style>
<g>
	<path class="st0" d="M39.2,17.1c1-0.2,1.9-0.1,2.9-0.1c4.8,0,9.5,0,14.3,0c-0.6,1.5-1.1,3-2.1,4.2c-1.1,1.4-2.7,2.4-4.5,2.6
		c-2,0.2-4,0.1-5.9,0.1c-1.9,0-3.8,0-5.7,0c-1.7,0-3.3,0.1-4.9,0.2c0.2-0.8,0.6-1.5,0.9-2.2c0.5-1.2,1-2.3,1.9-3.2
		C36.9,17.7,38,17.3,39.2,17.1z"/>
	<path class="st0" d="M32,27.5c3-0.1,6.1-0.3,9.1-0.1c2.7,0.2,5.5,0.7,8,1.8c2.1,0.9,4,2.3,5.3,4.2c1.6,2.4,2,5.5,1.4,8.3
		c-0.4,2.1-1.4,4-3,5.5c-1.9,1.8-4.4,3-6.9,3.8c-3.1,0.9-6.4,1.2-9.6,1.3c-2.9,0-5.9,0-8.8-0.5c0.9-2.1,1.8-4.3,2.8-6.4
		c3.1,0.3,6.2,0.4,9.3,0c1.8-0.2,3.7-0.6,5.3-1.4c1.1-0.5,2.1-1.2,2.8-2.2c0.6-0.9,0.9-2.1,0.7-3.2c-0.2-1.2-1-2.3-2.1-3
		c-1.4-0.9-2.9-1.3-4.5-1.6c-4.2-0.7-8.4-0.4-12.6-0.4C30.2,31.7,31.2,29.7,32,27.5z"/>
	<path class="st0" d="M35.1,35.7c1.3-0.2,2.6,0.1,3.6,0.9c1.5,1.2,2,3.5,1.1,5.3c-0.9,1.8-3.1,2.6-5,2c-1.4-0.4-2.6-1.6-2.9-3.1
		c-0.4-1.7,0.3-3.6,1.8-4.5C34.1,36,34.6,35.8,35.1,35.7z"/>
</g>
<g>
	<path class="st1" d="M40.8,2c1.2,0,2.5,0,3.7,0c4.7,0.3,9.3,1.5,13.5,3.8c6.6,3.5,12,9.2,15.1,16c2.6,5.7,3.5,12.2,2.5,18.4
		c-0.7,5-2.7,9.9-5.5,14.1c-2.8,4.1-6.6,7.6-11,10.1c-5,2.9-10.7,4.4-16.5,4.4c-6,0-11.9-1.6-17.1-4.6c-3.1-1.8-5.9-4.1-8.2-6.8
		c-3.5-4-6.1-8.9-7.3-14c-1.2-4.9-1.3-10-0.2-14.9c1.5-7.1,5.3-13.6,10.8-18.3C26.2,5.3,33.4,2.4,40.8,2 M39.2,17.9
		c-1.1,0.2-2.2,0.6-3,1.4c-0.9,0.8-1.3,2-1.8,3.1c-0.3,0.7-0.6,1.4-0.8,2.1c1.6-0.1,3.1-0.2,4.7-0.2c1.8,0.1,3.6,0,5.4,0
		c1.9,0,3.8,0.1,5.6-0.1c1.7-0.2,3.2-1.1,4.2-2.4c1-1.1,1.4-2.6,2-4c-4.5,0-9,0-13.5,0C41.1,17.8,40.1,17.8,39.2,17.9 M32.4,27.8
		c-0.8,2-1.7,4-2.6,6c4-0.1,8-0.3,12,0.3c1.5,0.3,3,0.7,4.3,1.5c1,0.6,1.8,1.7,1.9,2.8c0.2,1-0.1,2.1-0.6,3
		c-0.6,0.9-1.6,1.6-2.6,2.1c-1.6,0.7-3.3,1.1-5.1,1.3c-2.9,0.4-5.9,0.3-8.8,0c-0.9,2-1.8,4-2.6,6.1c2.8,0.4,5.5,0.5,8.3,0.5
		c3.1-0.1,6.2-0.4,9.1-1.2c2.4-0.7,4.7-1.8,6.5-3.6c1.4-1.4,2.4-3.2,2.8-5.2c0.5-2.7,0.2-5.6-1.4-7.9c-1.2-1.8-3-3.1-5-4
		c-2.4-1.1-5-1.5-7.6-1.7C38.2,27.5,35.3,27.7,32.4,27.8 M35.4,35.5c-0.5,0.1-0.9,0.3-1.4,0.6c-1.4,0.9-2.1,2.7-1.7,4.3
		c0.3,1.4,1.4,2.5,2.7,2.9c1.8,0.6,3.9-0.3,4.8-1.9c0.9-1.6,0.4-3.8-1-5C37.9,35.6,36.6,35.3,35.4,35.5z"/>
</g>
</svg>
