<?xml version="1.0" encoding="utf-8"?>
<!-- Generator: Adobe Illustrator 23.0.3, SVG Export Plug-In . SVG Version: 6.00 Build 0)  -->
<svg version="1.1"
	 id="svg2" inkscape:output_extension="org.inkscape.output.svg.inkscape" inkscape:version="0.45.1" sodipodi:docbase="C:\Documents and Settings\USUARIO\Mis documentos\Ginés hijo" sodipodi:docname="logo la 1.jpg.svg" sodipodi:version="0.32" xmlns:cc="http://web.resource.org/cc/" xmlns:dc="http://purl.org/dc/elements/1.1/" xmlns:inkscape="http://www.inkscape.org/namespaces/inkscape" xmlns:rdf="http://www.w3.org/1999/02/22-rdf-syntax-ns#" xmlns:sodipodi="http://sodipodi.sourceforge.net/DTD/sodipodi-0.dtd" xmlns:svg="http://www.w3.org/2000/svg"
	 xmlns="http://www.w3.org/2000/svg" xmlns:xlink="http://www.w3.org/1999/xlink" x="0px" y="0px" viewBox="0 0 85 70.9"
	 style="enable-background:new 0 0 85 70.9;" xml:space="preserve">
<style type="text/css">
	.st0{fill-rule:evenodd;clip-rule:evenodd;fill:url(#path3164_1_);}
	.st1{fill-rule:evenodd;clip-rule:evenodd;fill:url(#path3192_1_);}
	.st2{fill-rule:evenodd;clip-rule:evenodd;fill:url(#path3196_1_);}
	.st3{fill-rule:evenodd;clip-rule:evenodd;fill:url(#path3198_1_);}
	.st4{fill-rule:evenodd;clip-rule:evenodd;fill:url(#path3204_1_);}
	.st5{fill-rule:evenodd;clip-rule:evenodd;fill:url(#path3224_1_);}
	.st6{fill-rule:evenodd;clip-rule:evenodd;fill:url(#path3235_1_);}
	.st7{fill-rule:evenodd;clip-rule:evenodd;fill:#FFFFFF;}
</style>
<sodipodi:namedview  bordercolor="#666666" borderopacity="1.0" gridtolerance="10.0" guidetolerance="10.0" id="base" inkscape:current-layer="svg2" inkscape:cx="1042" inkscape:cy="889.5" inkscape:pageopacity="0.0" inkscape:pageshadow="2" inkscape:window-height="904" inkscape:window-width="1280" inkscape:window-x="-4" inkscape:window-y="-4" inkscape:zoom="0.21191681" objecttolerance="10.0" pagecolor="#ffffff">
	</sodipodi:namedview>
<g id="g2331" transform="translate(-439.09464,-87.839579)">
	
		<radialGradient id="path3164_1_" cx="-454.1702" cy="-62.9853" r="3.7243" gradientTransform="matrix(9.3015 -2.4923 -2.0554 -7.6707 4573.3579 -1494.2189)" gradientUnits="userSpaceOnUse">
		<stop  offset="0" style="stop-color:#0055D4"/>
		<stop  offset="1" style="stop-color:#0055D4;stop-opacity:0"/>
	</radialGradient>
	
		<path id="path3164" sodipodi:cx="-822.27057" sodipodi:cy="348.03381" sodipodi:rx="100.18169" sodipodi:ry="82.617371" sodipodi:type="arc" class="st0" d="
		M513,111.6c4.2,15.8-7.9,32.7-27,37.9c-19.1,5.1-38.1-3.5-42.3-19.3s7.9-32.7,27-37.9C489.8,87.2,508.8,95.8,513,111.6z"/>
	
		<radialGradient id="path3192_1_" cx="-454.7617" cy="-56.1651" r="3.7243" gradientTransform="matrix(9.3015 -2.4923 -2.0554 -7.6707 4593.6313 -1441.4142)" gradientUnits="userSpaceOnUse">
		<stop  offset="0" style="stop-color:#0055D4"/>
		<stop  offset="1" style="stop-color:#0055D4;stop-opacity:0"/>
	</radialGradient>
	
		<path id="path3192" sodipodi:cx="-822.27057" sodipodi:cy="348.03381" sodipodi:rx="100.18169" sodipodi:ry="82.617371" sodipodi:type="arc" class="st1" d="
		M513.8,113.5c4.2,15.8-7.9,32.7-27,37.9c-19.1,5.1-38.1-3.5-42.3-19.3s7.9-32.7,27-37.9C490.6,89.1,509.5,97.8,513.8,113.5z"/>
	
		<radialGradient id="path3196_1_" cx="-455.7239" cy="-51.8613" r="3.7243" gradientTransform="matrix(9.3015 -2.4923 -2.0554 -7.6707 4612.1147 -1409.6173)" gradientUnits="userSpaceOnUse">
		<stop  offset="0" style="stop-color:#0055D4"/>
		<stop  offset="1" style="stop-color:#0055D4;stop-opacity:0"/>
	</radialGradient>
	
		<path id="path3196" sodipodi:cx="-822.27057" sodipodi:cy="348.03381" sodipodi:rx="100.18169" sodipodi:ry="82.617371" sodipodi:type="arc" class="st2" d="
		M514.4,114.7c4.2,15.8-7.9,32.7-27,37.9s-38.1-3.5-42.3-19.3s7.9-32.7,27-37.9C491.3,90.3,510.2,98.9,514.4,114.7z"/>
	
		<radialGradient id="path3198_1_" cx="-456.3154" cy="-45.0411" r="3.7243" gradientTransform="matrix(9.3015 -2.4923 -2.0554 -7.6707 4632.3882 -1356.8126)" gradientUnits="userSpaceOnUse">
		<stop  offset="0" style="stop-color:#0055D4"/>
		<stop  offset="1" style="stop-color:#0055D4;stop-opacity:0"/>
	</radialGradient>
	
		<path id="path3198" sodipodi:cx="-822.27057" sodipodi:cy="348.03381" sodipodi:rx="100.18169" sodipodi:ry="82.617371" sodipodi:type="arc" class="st3" d="
		M515.2,116.7c4.2,15.8-7.9,32.7-27,37.9c-19.1,5.1-38.1-3.5-42.3-19.3c-4.2-15.8,7.9-32.7,27-37.9C492,92.3,511,100.9,515.2,116.7z
		"/>
	
		<radialGradient id="path3204_1_" cx="-532.2693" cy="-213.705" r="3.7243" gradientTransform="matrix(3.8796 7.0186 5.6648 -3.4129 3746.1426 3133.7114)" gradientUnits="userSpaceOnUse">
		<stop  offset="0" style="stop-color:#6600FF"/>
		<stop  offset="1" style="stop-color:#5500D4;stop-opacity:0"/>
	</radialGradient>
	
		<path id="path3204" sodipodi:cx="-822.27057" sodipodi:cy="348.03381" sodipodi:rx="100.18169" sodipodi:ry="82.617371" sodipodi:type="arc" class="st4" d="
		M485,153.4c-11.7,7-27.6,1-35.5-13.4c-8-14.4-5-31.8,6.6-38.9c11.7-7,27.6-1,35.5,13.4C499.7,129,496.7,146.4,485,153.4z"/>
	
		<radialGradient id="path3224_1_" cx="-550.4407" cy="-311.8607" r="3.7243" gradientTransform="matrix(3.8796 7.0186 5.6648 -3.4129 4396.8608 2918.2393)" gradientUnits="userSpaceOnUse">
		<stop  offset="0" style="stop-color:#00AAD4"/>
		<stop  offset="1" style="stop-color:#00AAD4;stop-opacity:0"/>
	</radialGradient>
	
		<path id="path3224" sodipodi:cx="-822.27057" sodipodi:cy="348.03381" sodipodi:rx="100.18169" sodipodi:ry="82.617371" sodipodi:type="arc" class="st5" d="
		M509.2,145.4c-11.7,7-27.6,1-35.5-13.4c-8-14.4-5-31.8,6.6-38.9c11.7-7,27.6-1,35.5,13.4C523.9,121,520.9,138.4,509.2,145.4z"/>
	
		<radialGradient id="path3235_1_" cx="-465.4318" cy="-41.7597" r="3.7243" gradientTransform="matrix(8.588 -2.3012 -1.8977 -7.0823 4398.8252 -1243.4707)" gradientUnits="userSpaceOnUse">
		<stop  offset="0" style="stop-color:#0055D4"/>
		<stop  offset="1" style="stop-color:#0055D4;stop-opacity:0"/>
	</radialGradient>
	
		<path id="path3235" sodipodi:cx="-822.27057" sodipodi:cy="348.03381" sodipodi:rx="100.18169" sodipodi:ry="82.617371" sodipodi:type="arc" class="st6" d="
		M512.9,114.7c3.9,14.6-7.3,30.2-24.9,34.9s-35.1-3.2-39.1-17.8s7.3-30.2,24.9-34.9C491.5,92.2,509,100.2,512.9,114.7z"/>
	<path id="path2161" sodipodi:nodetypes="ccccccccccccccc" class="st7" d="M470.6,111.9l3.1,5.1l3.3-2.5v20.3l-4.9,1.8v3.7
		c0,0.2,0.2,0.2,0.4,0.2h15.7c0.2,0,0.4-0.1,0.4-0.4l0-3.5l-4.4-1.8v-28.7c0-0.3-0.1-0.4-0.5-0.4h-4.1L470.6,111.9z"/>
</g>
</svg>
